<svg width="126" height="127" viewBox="0 0 126 127" fill="none" xmlns="http://www.w3.org/2000/svg">
<path d="M0 0.412109H126V126.412H0V0.412109Z" fill="white"/>
<path d="M82.3335 84.5138H43.6518C39.3802 84.5138 35.9154 81.143 35.9154 76.9875V54.425C35.9154 50.275 39.3802 46.9042 43.6518 46.9042H49.0561C50.2055 44.1467 52.9796 42.2016 56.2233 42.2016H69.7619C73.0056 42.2016 75.7852 44.1467 76.9291 46.9042H82.3335C86.605 46.9042 90.0698 50.2695 90.0698 54.425V76.9875C90.0698 81.1485 86.605 84.5138 82.3335 84.5138ZM62.9926 51.6123C55.516 51.6123 49.454 57.5029 49.454 64.7696C49.454 72.0362 55.516 77.9324 62.9926 77.9324C70.4692 77.9324 76.5312 72.0362 76.5312 64.7696C76.5312 57.5029 70.4692 51.6123 62.9926 51.6123ZM62.9926 74.1692C57.6545 74.1692 53.3222 69.9585 53.3222 64.7696C53.3222 59.5752 57.649 55.3699 62.9926 55.3699C68.3362 55.3699 72.663 59.5807 72.663 64.7696C72.663 69.964 68.3307 74.1692 62.9926 74.1692Z" fill="#E4E4E4"/>
<path d="M28.4864 44.9762C29.1166 43.8848 30.5121 43.5109 31.6035 44.141L95.9689 81.3024C97.0603 81.9325 97.4342 83.328 96.8041 84.4194C96.174 85.5108 94.7784 85.8847 93.687 85.2546L29.3216 48.0932C28.2303 47.4631 27.8563 46.0676 28.4864 44.9762Z" fill="white"/>
<path d="M28.8364 44.0429C29.4666 42.9515 30.8621 42.5775 31.9535 43.2077L96.3189 80.369C97.4103 80.9991 97.7842 82.3947 97.1541 83.4861C96.524 84.5775 95.1284 84.9514 94.037 84.3213L29.6716 47.1599C28.5803 46.5298 28.2063 45.1342 28.8364 44.0429Z" fill="#E4E4E4"/>
</svg>
