<svg width="22" height="22" viewBox="0 0 22 22" fill="none" xmlns="http://www.w3.org/2000/svg">
<rect x="0.5" y="0.5" width="21" height="21" rx="6.5" fill="#FAFAFA"/>
<rect x="0.5" y="0.5" width="21" height="21" rx="6.5" stroke="#E4E4E7"/>
<g clipPath="url(#clip0_20947_11448)">
<path d="M11 12.555C11.8591 12.555 12.5556 11.8585 12.5556 10.9994C12.5556 10.1403 11.8591 9.44385 11 9.44385C10.1409 9.44385 9.44446 10.1403 9.44446 10.9994C9.44446 11.8585 10.1409 12.555 11 12.555Z" fill="#52525B"/>
<path d="M7.11113 10.9997C7.11113 11.3217 7.37246 11.5831 7.69446 11.5831C8.01646 11.5831 8.2778 11.3217 8.2778 10.9997C8.2778 9.49862 9.49891 8.27751 11 8.27751C12.5011 8.27751 13.7222 9.49862 13.7222 10.9997C13.7222 12.5008 12.5011 13.722 11 13.722C10.678 13.722 10.4167 13.9833 10.4167 14.3053C10.4167 14.6273 10.678 14.8886 11 14.8886C13.1444 14.8886 14.8889 13.1441 14.8889 10.9997C14.8889 8.8554 13.1444 7.11084 11 7.11084C8.85569 7.11084 7.11113 8.8554 7.11113 10.9997Z" fill="#52525B"/>
<path d="M8.24979 12.9248C8.0219 13.1527 8.0219 13.5222 8.24979 13.75C8.47768 13.9779 8.84712 13.9779 9.07501 13.75C9.3029 13.5222 9.3029 13.1527 9.07501 12.9248C8.84712 12.6969 8.47768 12.6969 8.24979 12.9248Z" fill="#52525B"/>
<path d="M16.1318 8.60139C15.8277 8.70717 15.6667 9.03928 15.7725 9.34416C15.9607 9.88628 16.0563 10.4432 16.0563 11.0001C16.0563 13.7876 13.7883 16.0556 11.0008 16.0556C8.21323 16.0556 5.94523 13.7876 5.94523 11.0001C5.94523 8.2125 8.21245 5.9445 11 5.9445C11.5569 5.9445 12.1146 6.04017 12.6559 6.22839C12.96 6.33417 13.2929 6.17239 13.3987 5.86905C13.5045 5.56494 13.3435 5.23205 13.0393 5.12628C12.3743 4.89528 11.6883 4.77783 11 4.77783C7.56923 4.77783 4.77779 7.56928 4.77779 11.0001C4.77779 14.4308 7.56923 17.2223 11 17.2223C14.4308 17.2223 17.2222 14.4308 17.2222 11.0001C17.2222 10.3125 17.1048 9.6265 16.8738 8.96072C16.768 8.65583 16.4359 8.49328 16.1318 8.60139Z" fill="#52525B"/>
<path d="M15.3999 7.42387C15.6278 7.19598 15.6278 6.82654 15.3999 6.59865C15.172 6.37076 14.8026 6.37076 14.5747 6.59865C14.3468 6.82654 14.3468 7.19598 14.5747 7.42387C14.8026 7.65176 15.172 7.65176 15.3999 7.42387Z" fill="#52525B"/>
</g>
<defs>
<clipPath id="clip0_20947_11448">
<rect width="14" height="14" fill="white" transform="translate(4 4)"/>
</clipPath>
</defs>
</svg>
