<svg width="391" height="121" viewBox="0 0 391 121" fill="none" xmlns="http://www.w3.org/2000/svg">
<style><![CDATA[
  path { stroke: url(#brandStroke); stroke-width: 1.5; vector-effect: non-scaling-stroke; }
]]></style>
<path fill-rule="evenodd" clip-rule="evenodd" d="M57.8661 0C49.0251 0.369739 40.3741 2.68327 32.5287 6.776L57.8661 50.6587V0ZM57.8661 70.3534L32.5368 114.224C40.3797 118.316 49.0278 120.629 57.8661 121V70.3534ZM63.1296 121V70.3091L88.4831 114.22C80.6328 118.315 71.9761 120.632 63.1296 121ZM63.1296 50.699V0C72.249 0.3872 80.848 2.7951 88.4872 6.78407L63.1296 50.699ZM9.42174 93.0369L53.3205 67.6914L27.9751 111.59C20.5155 106.828 14.184 100.496 9.42174 93.0369ZM111.586 27.9712L67.7034 53.3045L93.0448 9.42187C100.501 14.1839 106.826 20.5139 111.586 27.9712ZM9.41771 27.9671C14.1801 20.5076 20.5115 14.1762 27.971 9.4138L53.3165 53.3126L9.41771 27.9671ZM6.77991 32.5248C2.68501 40.3751 0.371424 49.0318 0.00390625 57.8783H50.6908L6.77991 32.5248ZM6.77991 88.4792C2.6873 80.6338 0.373777 71.9829 0.00390625 63.1418H50.6706L6.78394 88.4792H6.77991ZM70.321 57.8783H121C120.632 49.0332 118.318 40.3779 114.224 32.5288L70.321 57.8783ZM114.224 88.4752L70.3412 63.1459H121C120.629 71.9842 118.315 80.6322 114.224 88.4752ZM67.7034 67.6995L93.0368 111.582C100.494 106.821 106.824 100.49 111.586 93.0329L67.7034 67.6995Z" fill="url(#paint0_linear_8303_4204)"/>
<path d="M176.44 29.9893H191.059V84.2564C191.059 98.2109 179.762 109.507 165.919 109.507H147.423L149.085 94.7776H163.814C170.349 94.7776 175.665 89.9047 176.329 83.4812C173.228 84.9209 169.684 85.8069 166.029 85.8069C152.186 85.8069 141 74.5105 141 60.6668V29.9893H155.73V60.6668C155.73 66.4258 160.27 71.0773 166.029 71.0773C171.788 71.0773 176.44 66.4258 176.44 60.6668V29.9893Z" fill="white"/>
<path d="M225.262 71.0773C229.471 71.0773 233.347 69.0838 235.783 65.8721C239.77 68.0871 245.086 71.0773 248.63 73.0708C243.646 80.7125 235.008 85.8069 225.262 85.8069C209.757 85.8069 197.132 73.1815 197.132 57.6766C197.132 42.1717 209.757 29.657 225.262 29.657C234.565 29.657 242.76 34.1978 247.855 41.175C250.181 44.2759 251.842 47.8199 252.617 51.6961L238.552 58.0089L216.513 67.8656C218.949 69.859 221.94 71.0773 225.262 71.0773ZM225.262 44.2759C217.953 44.2759 211.972 50.1457 211.861 57.3444L233.901 47.4877C231.575 45.4942 228.474 44.2759 225.262 44.2759Z" fill="white"/>
<path d="M273.401 11.4941V68.7515C273.401 69.7483 274.176 70.6343 275.284 70.6343H277.72V85.3639H268.639C263.101 85.3639 258.671 80.934 258.671 75.3965V11.4941H273.401Z" fill="white"/>
<path d="M298.492 11.4941V68.7515C298.492 69.7483 299.268 70.6343 300.375 70.6343H302.812V85.3639H293.73C288.193 85.3639 283.763 80.934 283.763 75.3965V11.4941H298.492Z" fill="white"/>
<path d="M334.173 85.8069C318.668 85.8069 306.042 73.1815 306.042 57.6766C306.042 42.1717 318.668 29.657 334.173 29.657C349.678 29.657 362.192 42.1717 362.192 57.6766C362.192 73.1815 349.678 85.8069 334.173 85.8069ZM334.173 44.2759C326.753 44.2759 320.772 50.2564 320.772 57.6766C320.772 65.0968 326.753 71.0773 334.173 71.0773C341.482 71.0773 347.573 65.0968 347.573 57.6766C347.573 50.2564 341.482 44.2759 334.173 44.2759Z" fill="white"/>
<path d="M378.087 94.3346C375.282 94.3346 372.956 93.7071 371.11 92.4519C369.264 91.1967 367.899 89.5724 367.013 87.5789C366.127 85.5854 365.684 83.5181 365.684 81.377C365.684 77.3162 366.976 74.2152 369.56 72.074C372.144 69.859 375.245 68.7515 378.863 68.7515C382.554 68.7515 385.471 69.859 387.612 72.074C389.753 74.289 390.824 77.2423 390.824 80.934C390.824 85.6593 389.532 89.0556 386.947 91.1229C384.437 93.2641 381.484 94.3346 378.087 94.3346Z" fill="white"/>
<path d="M378.124 94.3349C375.318 94.3349 372.992 93.7073 371.147 92.4521C369.301 91.197 367.935 89.5727 367.049 87.5792C366.163 85.5857 365.72 83.5184 365.72 81.3772C365.72 77.3164 367.012 74.2154 369.596 72.0743C372.18 69.8593 375.281 68.7518 378.899 68.7518C382.591 68.7518 385.507 69.8593 387.648 72.0743C389.789 74.2893 390.86 77.2426 390.86 80.9342C390.86 85.6595 389.568 89.0558 386.984 91.1232C384.473 93.2643 381.52 94.3349 378.124 94.3349Z" fill="url(#paint1_linear_8303_4204)"/>
<defs>
<linearGradient id="brandStroke" x1="0" y1="0" x2="1" y2="0">
  <stop stop-color="#F59E0B" offset="0%"/>
  <stop stop-color="#F97316" offset="50%"/>
  <stop stop-color="#FDE047" offset="100%"/>
</linearGradient>
<linearGradient id="paint0_linear_8303_4204" x1="60.5019" y1="0" x2="60.5019" y2="121" gradientUnits="userSpaceOnUse">
<stop stop-color="#F59E0B"/>
<stop offset="0.5" stop-color="#F97316"/>
<stop offset="1" stop-color="#FDE047"/>
</linearGradient>
<linearGradient id="paint1_linear_8303_4204" x1="265.93" y1="11.4941" x2="265.93" y2="109.507" gradientUnits="userSpaceOnUse">
<stop stop-color="#F59E0B"/>
<stop offset="0.5" stop-color="#F97316"/>
<stop offset="1" stop-color="#FDE047"/>
</linearGradient>
</defs>
</svg>
