<svg version="1.1" id="Layer_1" xmlns:x="ns_extend;" xmlns:i="ns_ai;" xmlns:graph="ns_graphs;" xmlns="http://www.w3.org/2000/svg" xmlns:xlink="http://www.w3.org/1999/xlink" x="0px" y="0px" viewBox="0 0 817.9 178.9" style="enable-background:new 0 0 817.9 178.9;" xml:space="preserve">
 <style type="text/css">
  .st0{fill:#CE0E2D;}
 </style>
 <metadata>
  <sfw xmlns="ns_sfw;">
   <slices>
   </slices>
   <sliceSourceBounds bottomLeftOrigin="true" height="178.9" width="817.9" x="-191.8" y="-405">
   </sliceSourceBounds>
  </sfw>
 </metadata>
 <g>
  <g>
   <polygon points="341.7,95.3 300.4,95.3 300.4,58.9 282.1,58.9 282.1,149.1 300.4,149.1 300.4,112.5 341.7,112.5 341.7,149.1 
			360,149.1 360,58.9 341.7,58.9 		">
   </polygon>
  </g>
  <path d="M444.8,110.5c0,14.7-7.3,22.5-20.5,22.5c-13.3,0-20.6-8-20.6-23.1V59h-18.3v51.6c0,25.4,14.1,39.9,38.7,39.9
		c24.8,0,39-14.8,39-40.7V58.9h-18.3V110.5z">
  </path>
  <polygon points="656.2,120.9 635.8,58.9 620.8,58.9 600.4,120.9 580.4,59 561,59 592.4,149.1 607.5,149.1 628,89.9 648.5,149.1 
		663.8,149.1 695.2,59 676.2,59 	">
  </polygon>
  <polygon points="728,110.3 761.2,110.3 761.2,93.9 728,93.9 728,75.4 776.3,75.4 776.3,59 709.9,59 709.9,149 778,149 778,132.6 
		728,132.6 	">
  </polygon>
  <rect x="799.8" y="58.9" width="18" height="90">
  </rect>
  <path d="M512.1,58.9L472.4,149H491l8.2-18.8h41.3l8.1,18.8h19.2l-39.6-90.1H512.1z M506,114l13.8-32.3l13.9,32.3H506z">
  </path>
  <path class="st0" d="M220.3,70.9c1.3-20.4-19.2-39.3-19.2-39.3s-38.1,46.2-65.9,106.9c-0.1,0.3-0.2,0.9,0.1,1.1
		c0.2,0.2,0.6,0.3,1.1,0.1c10.4-5.2,53.7-27.5,72-44.9C208.3,94.7,219.7,85.6,220.3,70.9 M171.7,24.8c0,0-4.8-17.8-24.1-22.5
		c0,0-5.6-1.4-11.5-2.2c0,0-21.6,27.8-11.1,132.9c0.1,0.6,0.4,0.7,0.6,0.8c0.4,0.1,0.8,0,1-0.4c6.9-10,38.5-56.9,45-85.4
		C171.6,47.9,175.1,34.1,171.7,24.8 M142.1,154.4c-0.1,0.2-0.2,0.8,0.2,1.1c7,5,28.2,19.8,38.4,22.7c0,0,18.9,6.4,35.2-21.7
		c0,0-54.8-1.9-73.1-2.5C142.6,154,142.2,154.1,142.1,154.4 M235.3,92c0,0-62,33.3-94.1,54.9c-0.2,0.2-0.5,0.5-0.4,1
		c0.1,0.3,0.4,0.6,0.8,0.6c11.5,0,54.9,0.1,56-0.1c0,0,5.6-0.2,12.6-2.9c0,0,15.5-4.9,23.5-22.5C233.7,123.1,240.9,108.7,235.3,92
		 M96.2,146.9C64.1,125.3,2.1,92,2.1,92c-5.5,16.7,1.6,31.1,1.6,31.1c8,17.6,23.5,22.5,23.5,22.5c6.9,2.7,12.6,2.9,12.6,2.9
		c1.1,0.2,44.6,0.2,56,0.1c0.4,0,0.7-0.3,0.8-0.6C96.7,147.4,96.4,147.1,96.2,146.9 M94.6,154c-18.2,0.6-73.1,2.5-73.1,2.5
		c16.4,28.1,35.2,21.7,35.2,21.7c10.2-2.9,31.4-17.7,38.4-22.7c0.4-0.3,0.3-0.9,0.2-1.1C95.2,154.1,94.8,154,94.6,154 M89.8,2.2
		C70.5,7,65.7,24.8,65.7,24.8c-3.4,9.3,0.1,23.1,0.1,23.1c6.4,28.5,38,75.4,45,85.4c0.3,0.4,0.6,0.5,1,0.4c0.3-0.1,0.5-0.3,0.6-0.8
		C122.9,27.8,101.3,0,101.3,0C95.4,0.8,89.8,2.2,89.8,2.2 M36.3,31.5c0,0-20.6,18.9-19.3,39.3c0.6,14.7,12,23.9,12,23.9
		c18.2,17.4,61.5,39.7,72,44.9c0.4,0.2,0.8,0.1,1.1-0.1c0.3-0.3,0.3-0.8,0.1-1.1C74.5,77.7,36.3,31.5,36.3,31.5">
  </path>
 </g>
</svg>