<svg height="80" viewBox="0 0 453.10135 80" width="453.10135" xmlns="http://www.w3.org/2000/svg">
  <path d="m288.47136 55.916795c-1.86561 9.904594-8.78526 17.38392-19.79223 17.38392-10.76957 0-17.2313-6.868772-19.52089-16.162807-.35605-1.407674-.84801-3.40895-.94977-8.564766-.0507-2.052149.66146-5.95293.79714-6.56349 2.06909-9.531477 8.36126-16.637687 19.67352-16.637687 11.1257 0 17.07862 6.665254 19.45304 15.72185.25433.915837 1.00064 4.647022 1.03453 7.564124.0349 3.29023-.49183 6.173419-.69534 7.258856m-19.79223-37.345758c-15.99323 0-24.71063 9.429717-27.57683 22.06486-.45793 2.03519-1.01763 5.986851-1.01763 8.547802 0 2.883189.59363 7.03837 1.13633 9.209243 3.01885 12.397706 11.36316 21.60694 27.45813 21.60694 16.16277 0 23.31987-8.310361 26.96628-19.775268.86494-2.713591 1.64509-7.157089 1.64509-10.905234 0-2.866226-.59358-6.970526-1.13632-9.141397-3.03582-12.414669-11.09177-21.606946-27.47505-21.606946m156.98107 27.27156h-16.58679v-19.690474h18.50325c4.35868 0 7.58109.915834 9.61629 2.730546 2.01822 1.814713 3.03582 4.121265 3.03582 6.936609 0 1.916475-.52576 3.697267-1.56033 5.342379-1.05152 1.628153-2.57792 2.815349-4.5961 3.561582-2.01827.746239-4.81668 1.119358-8.41214 1.119358m17.19738 16.993847c-2.03519-3.154549-3.95169-5.935977-5.52894-7.852447-.89887-1.102395-2.44224-2.527034-3.81599-3.205429 5.18969-.457916 8.00506-2.39135 10.73564-5.291497 2.69662-2.900143 4.07038-6.461731 4.07038-10.667793 0-3.273262-.83108-6.25821-2.45923-8.971798-1.64509-2.696629-3.83293-4.579178-6.5804-5.647652-2.74754-1.06848-6.76706-1.611194-12.0246-1.611194h-26.27096v59.393658h8.08993v-26.355727h8.83609c2.01826 0 3.49374.101753 4.35871.288346 1.22113.305278 2.40831.831038 3.59549 1.577272 1.17022.763201 2.47616 2.086071 3.95167 3.985582 1.4925 1.882556 3.37502 4.6131 5.66462 8.157729l7.83546 12.346827h9.78589zm-83.95165-8.191646 10.09115-29.527229 10.82042 29.527229zm5.42718-35.056164-22.06485 59.393658h8.31034l6.15648-17.943601h25.40596l6.59739 17.943601h8.92092l-23.40471-59.393658zm-54.47528 0h-8.0899v59.393658h36.95568v-8.140766h-28.86578zm-81.59425 28.119553c-2.37435-1.068472-6.73309-2.340471-13.07605-3.782063-6.34301-1.441593-10.27774-2.849268-11.77019-4.239984-1.54337-1.37375-2.30654-3.137584-2.30654-5.274536 0-2.459186 1.08541-4.545256 3.2563-6.309088 2.15388-1.729915 5.59675-2.594871 10.32854-2.594871 4.52833 0 7.95425.949754 10.27775 2.866229 2.32351 1.91647 3.6803 4.765738 4.08736 8.513882l7.51325-.57664c-.11888-3.476783-1.1024-6.597411-2.90016-9.344916-1.79773-2.747511-4.37565-4.833579-7.71677-6.241255-3.35804-1.42463-7.22494-2.136951-11.6006-2.136951-3.98559 0-7.59804.678394-10.83738 2.035195-3.27326 1.339831-5.73247 3.324142-7.42844 5.919012-1.69602 2.611829-2.54398 5.427175-2.54398 8.412121 0 2.730552.69534 5.206699 2.08604 7.394532 1.3907 2.204787 3.49376 4.053417 6.30909 5.528933 2.18785 1.170231 6.00384 2.391347 11.41403 3.714223 5.4272 1.305913 8.92095 2.272628 10.51517 2.900146 2.45916.949756 4.23998 2.103034 5.30844 3.493747 1.06853 1.407676 1.61122 3.035829 1.61122 4.901418 0 1.831671-.55971 3.527663-1.67902 5.087977-1.11938 1.560312-2.81536 2.781426-5.08801 3.663343-2.28957.898875-4.91836 1.339833-7.88635 1.339833-3.35806 0-6.37692-.593598-9.05661-1.763829-2.67968-1.170235-4.66397-2.713591-5.93597-4.613101-1.28895-1.916469-2.08609-4.358699-2.42528-7.326686l-7.41147.644473c.10164 3.968626 1.18718 7.51325 3.2563 10.667798 2.03519 3.137584 4.88447 5.495014 8.49693 7.072288 3.61247 1.543352 8.08988 2.340465 13.44921 2.340465 4.22303 0 8.00507-.780155 11.39706-2.323505 3.35808-1.560315 5.95296-3.731187 7.7507-6.529573 1.79773-2.798385 2.69661-5.766374 2.69661-8.937882 0-3.188464-.831-5.986853-2.45916-8.429081-1.64511-2.459189-4.18913-4.47742-7.63202-6.071654" fill="#020051"/>
  <g fill="#00459c">
    <path d="m138.12164 8.021965-.0508-.01688c-2.69661-4.918365-6.47867-8.005085-10.70171-8.005085-4.15517 0-7.90331 3.001909-10.59992 7.801566l-.0163.017-42.959451 72.164484h17.807889l35.768352-60.190783 14.29726 24.066133h-21.96311l-8.17466 13.73754h38.34634l13.33053 22.40406h17.74008zm0 0"/>
    <path d="m70.655026 44.197484c0 12.821704-3.79904 22.200541-11.414009 28.119553-6.767056 5.121902-16.841221 7.682845-30.205615 7.682845h-29.035402v-13.890174h29.035402c9.005672 0 15.653972-1.373753 19.927872-4.08734 5.206702-3.425909 7.818525-9.344923 7.818525-17.841849v-43.82444h13.873227zm0 0"/>
  </g>
</svg>
