<svg xmlns="http://www.w3.org/2000/svg" id="svg164" width="843.387" height="510" version="1.2" viewBox="0 0 843.387 510"><style id="style153">.s0{fill:#e50012}</style><g id="g279" transform="matrix(0.5352173,0,0,0.5352173,5,4.9999983)"><path id="Layer" d="m 1328.6,362 c 27.9,27.9 43.5,65.7 43.5,105.1 0,39.4 -15.6,77.2 -43.5,105 -27.8,27.9 -65.6,43.5 -105,43.5 h -108.8 v -71 h 110 c 21.3,1.2 42.2,-6.4 57.8,-21.1 15.5,-14.7 24.3,-35.2 24.3,-56.5 0,-21.4 -8.8,-41.8 -24.3,-56.5 -15.6,-14.7 -36.5,-22.4 -57.8,-21.2 H 1101.3 V 615.6 H 1031 V 318.5 h 192.6 c 39.4,0 77.2,15.7 105,43.5 z" class="s0"/><path id="path156" d="M 667.9,318.5 V 418 c 0,2.7 0.5,5.3 1.5,7.8 1,2.5 2.5,4.7 4.3,6.6 1.9,1.9 4.2,3.4 6.6,4.5 2.5,1 5.1,1.5 7.8,1.5 h 51.8 v 64.1 h -64.5 c -10.3,0 -20.4,-2 -29.9,-5.9 -9.4,-3.9 -18,-9.6 -25.3,-16.8 -7.2,-7.2 -13,-15.8 -16.9,-25.3 -3.9,-9.4 -6,-19.6 -6,-29.8 V 318.5 Z" class="s0"/><path id="path158" d="m 980.9,318.5 v 106.2 c 0,10.2 -2,20.3 -5.9,29.8 -3.9,9.4 -9.7,18 -16.9,25.2 -7.2,7.2 -15.8,13 -25.2,16.9 -9.4,3.9 -19.6,5.9 -29.8,5.9 H 824.4 V 615.6 H 754.1 V 438.4 h 136 c 2.7,0 5.4,-0.5 7.9,-1.5 2.4,-1 4.7,-2.6 6.6,-4.5 1.9,-1.9 3.4,-4.1 4.4,-6.6 1.1,-2.5 1.6,-5.1 1.6,-7.8 v -99.5 z" class="s0"/><path id="path160" fill-rule="evenodd" d="m 554.7,410 q 0,7.7 -1.3,15.2 -1.2,7.5 -3.7,14.7 -2.5,7.3 -6.1,14 -3.7,6.7 -8.4,12.7 c 10.6,13.6 17.2,29.8 19,46.9 1.8,17.2 -1.2,34.4 -8.8,49.9 -7.5,15.5 -19.2,28.5 -33.8,37.7 -14.5,9.1 -31.4,14 -48.6,14.1 H 297.8 v -70.3 l 162.1,-0.8 c 6.4,0 12.5,-2.5 17,-7 4.5,-4.5 7,-10.7 7,-17 0,-6.4 -2.5,-12.5 -7,-17.1 -4.5,-4.5 -10.6,-7 -17,-7.7 H 283.6 V 615.6 H 213.1 V 318.5 H 463 c 12.1,0 24.1,2.4 35.3,7 11.2,4.6 21.3,11.3 29.9,19.9 8.6,8.5 15.4,18.7 20,29.9 4.6,11.1 7,23.1 7,35.2 m -95.3,27.2 c 6.4,0 12.5,-2.5 17,-7 4.5,-4.5 7,-10.7 7,-17.1 0,-6.3 -2.5,-12.5 -7,-17 -4.5,-4.5 -10.6,-7 -17,-7.8 H 283.6 V 438 h 174.8 z" class="s0"/><path id="path162" fill-rule="evenodd" d="M 778.5,934.2 C 348,934.2 0,725.4 0,467.1 0,208.8 348,0 778.5,0 c 430.6,0 778.6,208.8 778.6,467.1 0,258.3 -348,467.1 -778.6,467.1 z M 1507.7,467.7 C 1507.7,249 1181.8,72.2 778.5,72.2 375.3,72.2 49.4,249 49.4,467.7 c 0,218.7 325.9,395.5 729.1,395.5 403.3,0 729.2,-176.8 729.2,-395.5 z" class="s0"/></g></svg>